# AST/ASF file generated using VICON BodyLanguage
# -----------------------------------------------
:version 1.10
:name VICON
:units
  mass 1.0
  length 0.45
  angle deg
:documentation
   .ast/.asf automatically generated from VICON data using
   VICON BodyBuilder and BodyLanguage model FoxedUp or BRILLIANT.MOD
:root
   order TX TY TZ RX RY RZ
   axis XYZ
   position 0 0 0  
   orientation 0 0 0 
:bonedata
  begin
     id 1 
     name lhipjoint
     direction 0.710087 -0.641647 0.289942 
     length 2.79038 
     axis 0 0 0  XYZ
  end
  begin
     id 2 
     name lfemur
     direction 0.34202 -0.939693 0  
     length 7.2706  
     axis 0 0 20  XYZ
    dof rx ry rz
    limits (-160.0 20.0)
           (-70.0 70.0)
           (-60.0 70.0)
  end
  begin
     id 3 
     name ltibia
     direction 0.34202 -0.939693 0   
     length 7.86328   
     axis 0 0 20   XYZ
    dof rx
    limits (-10.0 170.0)
  end
  begin
     id 4 
     name lfoot
     direction 0.0541246 -0.148706 0.987399   
     length 2.37542   
     axis -90 7.62852e-016 20   XYZ
    dof rx rz
    limits (-45.0 90.0)
           (-70.0 20.0)
  end
  begin
     id 5 
     name ltoes
     direction 1.53554e-011 -4.21866e-011 1   
     length 1.19593   
     axis -90 7.62852e-016 20   XYZ
    dof rx
    limits (-90.0 20.0)
  end
  begin
     id 6 
     name rhipjoint
     direction -0.675762 -0.671724 0.303533   
     length 2.66544  
     axis 0 0 0  XYZ 
  end
  begin
     id 7 
     name rfemur
     direction -0.34202 -0.939693 0   
     length 8.11844   
     axis 0 0 -20   XYZ
    dof rx ry rz
    limits (-160.0 20.0)
           (-70.0 70.0)
           (-70.0 60.0)
  end
  begin
     id 8 
     name rtibia
     direction -0.34202 -0.939693 0   
     length 7.97082   
     axis 0 0 -20   XYZ
    dof rx
    limits (-10.0 170.0)
 end
 begin
     id 9 
     name rfoot
     direction -0.0726228 -0.199474 0.977208   
     length 2.19677  
     axis -90 -7.62852e-016 -20   XYZ
    dof rx rz
    limits (-45.0 90.0)
           (-20.0 70.0)
  end
  begin
     id 10 
     name rtoes
     direction -1.53508e-011 -4.21913e-011 1   
     length 1.10438   
     axis -90 -7.62852e-016 -20   XYZ
    dof rx
    limits (-90.0 20.0)
  end
  begin
     id 11 
     name lowerback
     direction -0.00404436 0.999673 -0.0252643   
     length 2.03972   
     axis 0 0 0   XYZ
    dof rx ry rz
    limits (-20.0 45.0)
           (-30.0 30.0)
           (-30.0 30.0)
  end
  begin
     id 12 
     name upperback
     direction 0.00744643 0.999969 0.00242763   
     length 2.04273   
     axis 0 0 0   XYZ
    dof rx ry rz
    limits (-20.0 45.0)
           (-30.0 30.0)
           (-30.0 30.0)
  end
  begin
     id 13 
     name thorax
     direction 0.00846113 0.999862 0.0143204   
     length 2.03752   
     axis 0 0 0   XYZ
    dof rx ry rz
    limits (-20.0 45.0)
           (-30.0 30.0)
           (-30.0 30.0)
  end
  begin
     id 14 
     name lowerneck
     direction 0.0328213 0.990857 0.130862   
     length 1.37497   
     axis 0 0 0   XYZ
    dof rx ry rz
    limits (-20.0 45.0)
           (-30.0 30.0)
           (-30.0 30.0)
  end
  begin
     id 15 
     name upperneck
     direction -0.0302832 0.999496 0.00956452   
     length 1.35926   
     axis 0 0 0   XYZ
    dof rx ry rz
    limits (-20.0 45.0)
           (-30.0 30.0)
           (-30.0 30.0)
  end
  begin
     id 16
     name head
     direction -0.0130455 0.999856 -0.0108809  
     length 1.44454  
     axis 0 0 0   XYZ
    dof rx ry rz
    limits (-20.0 45.0)
           (-30.0 30.0)
           (-30.0 30.0)
  end
  begin
     id 17 
     name lclavicle
     direction 0.952957 0.278766 0.119006  
     length 3.10112  
     axis 0 0 0   XYZ
    dof ry rz
    limits (-20.0 10.0)
           (0.0 20.0)
  end
  begin
     id 18 
     name lhumerus
     direction 1 -4.48972e-011 -1.63238e-028   
     length 5.82845   
     axis -180 -30 -90   XYZ
    dof rx ry rz
    limits (-60.0 90.0)
           (-90.0 90.0)
           (-90.0 90.0)
  end
  begin
     id 19
     name lradius
     direction 1 -4.48959e-011 1.45401e-026   
     length 3.49691   
     axis -180 -30 -90   XYZ
    dof rx
    limits (-10.0 170.0)
  end
  begin
     id 20
     name lwrist
     direction 1 -4.48945e-011 2.98015e-026   
     length 1.74845   
     axis -1.7599e-014 90 90   XYZ
    dof ry
    limits (-180.0 0.0)
 end
  begin
     id 21 
     name lhand
     direction 1 -4.4902e-011 5.9603e-026   
     length 0.674998   
     axis -3.80318e-014 90 90   XYZ
    dof rx rz
    limits (-90.0 90.0)
           (-45.0 45.0)
  end
  begin
     id 22 
     name lfingers
     direction 1 -4.48979e-011 1.19206e-025   
     length 0.544201   
     axis -7.60636e-014 90 90   XYZ
    dof rx
    limits (0.0 90.0)
  end
  begin
     id 23
     name lthumb
     direction 0.707107 -6.34941e-011 0.707107   
     length 0.781367   
     axis -90 45 2.85299e-015   XYZ
    dof rx rz
    limits (-45.0 45.0)
           (-45.0 45.0)
  end
  begin
     id 24 
     name rclavicle
     direction -0.967632 0.241887 0.0719654   
     length 3.53012  
     axis 0 0 0   XYZ 
    dof ry rz
    limits (-10.0 20.0)
           (-20.0 0.0)
  end
  begin
     id 25 
     name rhumerus
     direction -1 -4.4897e-011 6.87619e-028  
     length 5.45859   
     axis -180 30 90   XYZ
    dof rx ry rz
    limits (-90.0 60.0)
           (-90.0 90.0)
           (-90.0 90.0)
  end
  begin
     id 26 
     name rradius
     direction -1 -4.48967e-011 1.68055e-026   
     length 3.58491   
     axis -180 30 90   XYZ
    dof rx
    limits (-10.0 170.0)
  end
  begin
     id 27 
     name rwrist
     direction -1 -4.48976e-011 2.98015e-026   
     length 1.79245   
     axis -1.7599e-014 -90 -90   XYZ
    dof ry
    limits (-180.0 0.0)
  end
  begin
     id 28
     name rhand
     direction -1 -4.48996e-011 5.9603e-026   
     length 0.683735   
     axis -3.80318e-014 -90 -90   XYZ
    dof rx rz
    limits (-90.0 90.0)
           (-45.0 45.0)
  end
  begin
     id 29
     name rfingers
     direction -1 -4.48924e-011 1.19206e-025   
     length 0.551245   
     axis -7.60636e-014 -90 -90   XYZ
    dof rx
    limits (0.0 90.0)
  end
  begin
     id 30
     name rthumb
     direction -0.707107 -6.3492e-011 0.707107   
     length 0.791481   
     axis -90 -45 -2.85299e-015   XYZ
    dof rx rz
    limits (-45.0 45.0)
           (-45.0 45.0)
  end
:hierarchy
  begin
    root lhipjoint rhipjoint lowerback
    lhipjoint lfemur
    lfemur ltibia
    ltibia lfoot
    lfoot ltoes
    rhipjoint rfemur
    rfemur rtibia
    rtibia rfoot
    rfoot rtoes
    lowerback upperback
    upperback thorax
    thorax lowerneck lclavicle rclavicle
    lowerneck upperneck
    upperneck head
    lclavicle lhumerus
    lhumerus lradius
    lradius lwrist
    lwrist lhand lthumb
    lhand lfingers
    rclavicle rhumerus
    rhumerus rradius
    rradius rwrist
    rwrist rhand rthumb
    rhand rfingers
  end

#!OML:ASF F:\VICON\USERDATA\INSTALL\rory3\rory3.ASF
:FULLY-SPECIFIED
:DEGREES
1004
root 13.9025 17.6696 -37.8223 -183.721 -131.657 174.078
lowerback 9.1619 4.00207 -1.53837
upperback -0.199137 5.09645 -1.0094
thorax -5.37791 2.53517 -0.887395
lowerneck -8.29903 10.1589 7.22701
upperneck 8.19585 13.063 -2.99562
head 4.46599 6.50325 -1.16749
rclavicle 5.14852e-014 7.95139e-015
rhumerus -30.2638 24.501 -68.684
rradius 106.795
rwrist -13.3419
rhand -13.7286 48.1185
rfingers 7.12502
rthumb 12.3908 18.5057
lclavicle 5.14852e-014 7.95139e-015
lhumerus -27.8606 12.9205 59.8257
lradius 50.6715
lwrist 53.6114
lhand 177.844 63.8357
lfingers 7.12502
lthumb -156.476 -684.746
rfemur 3.57341 -5.48989 22.6168
rtibia 40.8879
rfoot -30.2079 5.05881
rtoes 2.04539
lfemur -10.31 -12.1625 -13.5474
ltibia 28.931
lfoot -10.2784 5.01733
ltoes -9.83812
1005
root 13.9234 17.6662 -37.9168 -183.193 -131.285 173.819
lowerback 9.47373 4.08979 -1.05731
upperback -0.072378 5.26951 -0.842573
thorax -5.39219 2.60904 -1.02222
lowerneck -8.4255 10.2342 7.17062
upperneck 8.68034 13.2202 -3.40745
head 4.66899 6.55395 -1.24709
rclavicle -6.47044e-014 1.19271e-014
rhumerus -32.8257 25.0905 -71.5257
rradius 103.655
rwrist -12.5075
rhand -14.5095 48.4792
rfingers 7.12502
rthumb 11.6378 18.8224
lclavicle -6.47044e-014 1.19271e-014
lhumerus -28.1516 13.628 60.2776
lradius 49.2587
lwrist 53.2167
lhand 178.347 66.226
lfingers 7.12502
lthumb -155.994 -682.293
rfemur 3.08483 -4.54299 23.4468
rtibia 40.6076
rfoot -31.1975 4.5838
rtoes 3.55784
lfemur -10.8421 -12.0885 -12.9992
ltibia 28.9046
lfoot -10.1393 4.70703
ltoes -7.25346
1006
root 13.9412 17.6722 -38.0117 -182.873 -130.885 173.793
lowerback 9.85266 4.16798 -0.778634
upperback 0.0311123 5.40617 -0.705551
thorax -5.4829 2.6689 -1.0786
lowerneck -8.11701 10.3188 6.66926
upperneck 8.67567 13.4073 -3.31904
head 4.58679 6.63935 -1.15052
rclavicle -1.33409e-013 4.77083e-015
rhumerus -34.9471 25.7976 -74.1708
rradius 100.185
rwrist -11.8281
rhand -16.1246 49.3192
rfingers 7.12502
rthumb 10.0799 19.5806
lclavicle -1.33409e-013 4.77083e-015
lhumerus -28.5353 14.2093 60.6992
lradius 47.9478
lwrist 52.3981
lhand 178.091 65.4168
lfingers 7.12502
lthumb -156.239 -683.134
rfemur 2.58926 -4.07755 23.8157
rtibia 40.3967
rfoot -31.7907 3.77326
rtoes 1.03177
lfemur -11.2185 -12.7912 -12.712
ltibia 28.8429
lfoot -10.1642 4.79323
ltoes -0.521276
1007
root 13.9615 17.674 -38.1105 -182.722 -130.698 174.068
lowerback 10.3015 4.11803 -0.782439
upperback 0.0210308 5.33786 -0.607281
thorax -5.75567 2.63311 -1.00138
lowerneck -7.3374 10.4466 6.4352
upperneck 8.47256 13.6612 -3.42001
head 4.40056 6.76342 -1.17473
rclavicle 9.73299e-014 -1.74931e-014
rhumerus -36.716 26.6399 -76.7044
rradius 96.7248
rwrist -11.634
rhand -16.5157 49.4872
rfingers 7.12502
rthumb 9.70265 19.7307
lclavicle 9.73299e-014 -1.74931e-014
lhumerus -29.1953 14.6236 60.9664
lradius 46.8938
lwrist 51.6723
lhand 179.514 67.4667
lfingers 7.12502
lthumb -154.876 -680.9
rfemur 2.07353 -3.70466 24.0012
rtibia 40.1514
rfoot -32.3656 2.93352
rtoes -1.75168
lfemur -11.8284 -13.2108 -12.5861
ltibia 28.867
lfoot -10.148 4.64577
ltoes 4.0109
1008
root 13.9829 17.6625 -38.2087 -182.47 -130.495 174.221
lowerback 10.8374 4.2566 -0.71385
upperback 0.105116 5.5222 -0.589326
thorax -5.96192 2.71784 -1.08826
lowerneck -7.31864 10.4209 6.60438
upperneck 8.43888 13.6487 -3.81356
head 4.42619 6.742 -1.31713
rclavicle 4.07012e-014 -1.59028e-015
rhumerus -37.9489 26.7309 -78.6717
rradius 93.3869
rwrist -11.5649
rhand -15.9613 48.9199
rfingers 7.12502
rthumb 10.2374 19.1891
lclavicle 4.07012e-014 -1.59028e-015
lhumerus -29.3297 14.3698 61.5922
lradius 46.1273
lwrist 50.7169
lhand 178.214 65.0406
lfingers 7.12502
lthumb -156.121 -683.495
rfemur 1.53481 -3.36513 24.2173
rtibia 39.9448
rfoot -32.9832 2.95678
rtoes -2.13816
lfemur -12.4619 -12.9432 -12.3147
ltibia 28.8297
lfoot -12.0038 6.70826
ltoes -7.71425
1009
root 14.003 17.6555 -38.3031 -181.855 -130.371 173.939
lowerback 11.2294 4.16197 -0.478625
upperback 0.207893 5.43869 -0.304644
thorax -6.07975 2.67161 -0.935258
lowerneck -7.03941 10.5568 6.24477
upperneck 8.1965 13.9112 -4.12147
head 4.31673 6.84983 -1.35803
rclavicle 2.09267e-014 7.15625e-015
rhumerus -38.7474 27.0906 -80.3547
rradius 89.9852
rwrist -11.3923
rhand -14.8935 48.8708
rfingers 7.12502
rthumb 11.2675 19.1934
lclavicle 2.09267e-014 7.15625e-015
lhumerus -29.9236 14.5875 62.1868
lradius 45.56
lwrist 49.2571
lhand 178.196 64.9811
lfingers 7.12502
lthumb -156.139 -683.557
rfemur 0.984217 -2.53723 24.9612
rtibia 39.7479
rfoot -33.8333 2.24327
rtoes -3.99124
lfemur -13.191 -12.3356 -11.7279
ltibia 28.8095
lfoot -12.0541 6.83148
ltoes -11.969
1010
root 14.0204 17.6586 -38.3929 -181.79 -130.294 174.373
lowerback 11.6084 4.30793 -0.44604
upperback 0.320289 5.61687 -0.506335
thorax -6.14819 2.75206 -1.21746
lowerneck -6.95145 10.5145 6.61814
upperneck 7.94287 13.8433 -4.45378
head 4.27091 6.81361 -1.52579
rclavicle -1.34925e-014 7.15625e-015
rhumerus -39.5847 26.4127 -82.1518
rradius 86.739
rwrist -10.9993
rhand -14.6667 49.2948
rfingers 7.12502
rthumb 11.4862 19.6295
lclavicle -1.34925e-014 7.15625e-015
lhumerus -29.6294 13.8519 62.7821
lradius 44.7715
lwrist 47.6952
lhand 178.193 64.5266
lfingers 7.12502
lthumb -156.142 -684.012
rfemur 0.369827 -1.925 25.0804
rtibia 39.6256
rfoot -34.1868 1.64431
rtoes -4.11213
lfemur -13.8221 -12.1836 -11.7192
ltibia 28.8026
lfoot -11.8656 7.41471
ltoes -15.9665
1011
root 14.0395 17.6757 -38.4735 -181.193 -130.091 174.353
lowerback 11.8051 4.35064 -0.183772
upperback 0.325941 5.71024 -0.450795
thorax -6.2312 2.78931 -1.33608
lowerneck -6.70364 10.5431 6.44644
upperneck 7.70188 13.9257 -4.66564
head 4.16465 6.84473 -1.5777
rclavicle 2.60656e-014 -1.35174e-014
rhumerus -40.5306 26.4807 -83.6265
rradius 84.104
rwrist -10.9753
rhand -14.7867 49.2481
rfingers 7.12502
rthumb 11.3704 19.5763
lclavicle 2.60656e-014 -1.35174e-014
lhumerus -29.8509 13.1854 63.5403
lradius 44.3118
lwrist 46.4776
lhand 178.279 65.0366
lfingers 7.12502
lthumb -156.059 -683.491
rfemur -0.520748 -1.67865 25.3455
rtibia 39.6204
rfoot -34.3432 0.482206
rtoes -7.6656
lfemur -14.5933 -11.9345 -11.3752
ltibia 28.8001
lfoot -12.5272 7.44582
ltoes -12.9814
1012
root 14.0566 17.7047 -38.5481 -179.959 -129.958 173.754
lowerback 11.7536 4.2937 0.359335
upperback 0.284546 5.72635 -0.197357
thorax -6.21896 2.78585 -1.3721
lowerneck -6.48835 10.6447 6.16308
upperneck 7.5094 14.1198 -4.92185
head 4.08032 6.92552 -1.61489
rclavicle 1.13655e-013 -1.03368e-014
rhumerus -41.2102 26.8901 -84.9104
rradius 81.3691
rwrist -11.0485
rhand -15.6651 49.2618
rfingers 7.12502
rthumb 10.5232 19.5453
lclavicle 1.13655e-013 -1.03368e-014
lhumerus -30.2415 12.9911 64.2664
lradius 44.0067
lwrist 45.63
lhand 178.632 65.9221
lfingers 7.12502
lthumb -155.72 -682.56
rfemur -1.68002 -1.95106 25.8156
rtibia 39.7183
rfoot -34.3879 0.00515255
rtoes -10.9161
lfemur -15.6088 -11.5074 -10.6268
ltibia 28.7899
lfoot -12.8482 7.65775
ltoes -11.6815
